<?xml version="1.0" encoding="utf-8"?>
<!-- Generator: Adobe Illustrator 25.0.1, SVG Export Plug-In . SVG Version: 6.00 Build 0)  -->
<svg version="1.1" id="Layer_1" xmlns="http://www.w3.org/2000/svg" xmlns:xlink="http://www.w3.org/1999/xlink" x="0px" y="0px"
	 viewBox="0 0 1920.2 1124.34" style="enable-background:new 0 0 1920.2 1124.34;" xml:space="preserve">
<style type="text/css">
	.st0{opacity:0.6;clip-path:url(#SVGID_2_);fill:url(#SVGID_3_);}
	.st1{clip-path:url(#SVGID_2_);fill:url(#SVGID_4_);}
	.st2{opacity:0.6;clip-path:url(#SVGID_2_);fill:url(#SVGID_5_);}
	.st3{opacity:0.6;clip-path:url(#SVGID_7_);fill:url(#SVGID_8_);}
	.st4{clip-path:url(#SVGID_7_);fill:url(#SVGID_9_);}
	.st5{opacity:0.6;clip-path:url(#SVGID_7_);fill:url(#SVGID_10_);}
</style>
<g>
	<defs>
		
			<rect id="SVGID_1_" x="-695.49" y="87.57" transform="matrix(0.9758 -0.2186 0.2186 0.9758 -66.8313 178.837)" width="2940.26" height="607.64"/>
	</defs>
	<clipPath id="SVGID_2_">
		<use xlink:href="#SVGID_1_"  style="overflow:visible;"/>
	</clipPath>
	
		<linearGradient id="SVGID_3_" gradientUnits="userSpaceOnUse" x1="75.8767" y1="918.6256" x2="75.8767" y2="160.5226" gradientTransform="matrix(1.3008 -0.2915 0.2407 1.0743 15.3967 92.0714)">
		<stop  offset="0" style="stop-color:#EEF2F5"/>
		<stop  offset="0.1949" style="stop-color:#C5D1D7"/>
		<stop  offset="0.63" style="stop-color:#5D7D8D"/>
		<stop  offset="1" style="stop-color:#00334B"/>
	</linearGradient>
	<path class="st0" d="M-780.1,509.71c0,0,341.18,181.75,945.72,143.54S1194.31,406,1194.31,406l58.66,261.82l-1913.75,428.8
		L-780.1,509.71z"/>
	
		<linearGradient id="SVGID_4_" gradientUnits="userSpaceOnUse" x1="494.943" y1="877.9385" x2="494.943" y2="337.3237" gradientTransform="matrix(1.3008 -0.2915 0.2407 1.0743 15.3967 92.0714)">
		<stop  offset="0" style="stop-color:#EEF2F5"/>
		<stop  offset="0.1949" style="stop-color:#C5D1D7"/>
		<stop  offset="0.63" style="stop-color:#5D7D8D"/>
		<stop  offset="1" style="stop-color:#00334B"/>
	</linearGradient>
	<path class="st1" d="M-758.51,687.62c0,0,351.56,182.78,1108.05-1.81S1983.69-12.31,2333.77,55.12l80.48,359.21l-3143.2,704.27
		L-758.51,687.62z"/>
	
		<linearGradient id="SVGID_5_" gradientUnits="userSpaceOnUse" x1="502.5417" y1="1152.8239" x2="502.5417" y2="210.3718" gradientTransform="matrix(1.3008 -0.2915 0.2407 1.0743 15.3967 92.0714)">
		<stop  offset="0" style="stop-color:#EEF2F5"/>
		<stop  offset="0.1949" style="stop-color:#C5D1D7"/>
		<stop  offset="0.63" style="stop-color:#5D7D8D"/>
		<stop  offset="1" style="stop-color:#00334B"/>
	</linearGradient>
	<path class="st2" d="M2409.25,391.97l-89.87-401.1C1946.16-179.79,1118.74,558.02,364.65,753.29
		C-389.44,948.56-782.48,580.66-782.48,580.66l68.3,511.16L2409.25,391.97z"/>
</g>
<g>
	<defs>
		
			<rect id="SVGID_6_" x="-562.94" y="679.14" transform="matrix(0.9758 -0.2186 0.2186 0.9758 -192.9652 222.1301)" width="2940.26" height="607.64"/>
	</defs>
	<clipPath id="SVGID_7_">
		<use xlink:href="#SVGID_6_"  style="overflow:visible;"/>
	</clipPath>
	
		<linearGradient id="SVGID_8_" gradientUnits="userSpaceOnUse" x1="75.8767" y1="518.528" x2="75.8767" y2="-239.575" gradientTransform="matrix(1.3008 -0.2915 -0.2407 -1.0743 251.9448 1147.7969)">
		<stop  offset="0" style="stop-color:#EEF2F5"/>
		<stop  offset="0.1949" style="stop-color:#C5D1D7"/>
		<stop  offset="0.63" style="stop-color:#5D7D8D"/>
		<stop  offset="1" style="stop-color:#00334B"/>
	</linearGradient>
	<path class="st3" d="M-549.4,1539.36c0,0,231.01-309.96,794.05-533.36S1280.5,790.67,1280.5,790.67l-58.66-261.82l-1913.75,428.8
		L-549.4,1539.36z"/>
	
		<linearGradient id="SVGID_9_" gradientUnits="userSpaceOnUse" x1="494.943" y1="477.8409" x2="494.943" y2="-62.7739" gradientTransform="matrix(1.3008 -0.2915 -0.2407 -1.0743 251.9448 1147.7969)">
		<stop  offset="0" style="stop-color:#EEF2F5"/>
		<stop  offset="0.1949" style="stop-color:#C5D1D7"/>
		<stop  offset="0.63" style="stop-color:#5D7D8D"/>
		<stop  offset="1" style="stop-color:#00334B"/>
	</linearGradient>
	<path class="st4" d="M-605.79,1369.24c0,0,239.96-315.32,1002.88-471.17c762.92-155.85,1775.81-65.92,2063.65-276.28l-80.48-359.21
		l-3143.2,704.27L-605.79,1369.24z"/>
	
		<linearGradient id="SVGID_10_" gradientUnits="userSpaceOnUse" x1="502.5417" y1="752.7263" x2="502.5417" y2="-189.7258" gradientTransform="matrix(1.3008 -0.2915 -0.2407 -1.0743 251.9448 1147.7969)">
		<stop  offset="0" style="stop-color:#EEF2F5"/>
		<stop  offset="0.1949" style="stop-color:#C5D1D7"/>
		<stop  offset="0.63" style="stop-color:#5D7D8D"/>
		<stop  offset="1" style="stop-color:#00334B"/>
	</linearGradient>
	<path class="st5" d="M2385.26,284.93l89.87,401.1c-264.71,313.6-1327.84-0.61-2093.16,144.56
		c-765.31,145.17-963.8,645.61-963.8,645.61l-156.34-491.43L2385.26,284.93z"/>
</g>
</svg>
